<?xml version="1.0" encoding="utf-8"?>
<!-- Generator: Adobe Illustrator 21.0.0, SVG Export Plug-In . SVG Version: 6.00 Build 0)  -->
<svg version="1.1" id="Слой_1" xmlns="http://www.w3.org/2000/svg" xmlns:xlink="http://www.w3.org/1999/xlink" x="0px" y="0px"
	 width="2200px" height="2416.6px" viewBox="0 0 2200 2416.6" style="enable-background:new 0 0 2200 2416.6;" xml:space="preserve"
	>
<style type="text/css">
	.st0{opacity:0.5;clip-path:url(#SVGID_2_);fill:url(#SVGID_3_);}
</style>
<g>
	<defs>
		<path id="SVGID_1_" d="M2200,0c0,0,0,602.5,0,2416.8c-733.3,0-1466.7,0-2200,0C0,944,0,1038.1,0,1038.1s3.8,6.7,19.7,17.7
			s55.1,34.3,93.8,46.5c65.1,20.5,133.2,16.2,192.5-18.3c55.4-32.3,111.8-55.4,175-67c30.7-5.6,64-10,95.4-8.7
			c61.2,2.6,120.1,17.3,176.5,41.3c37,15.7,75.2,23.9,115.7,20.6c31.8-2.6,61.6-14.7,87.1-33.2c31.1-22.6,56.5-50.1,81.4-79.1
			c30.6-35.6,67.6-77.9,88.2-97.4c20.6-19.5,42.4-34.4,82.5-44.7c40.1-10.3,72.2-11.5,102-14.9s61.9-9.2,85.9-22.9
			s43.8-34.7,58-76.4c14.2-41.7,18.8-101.2,1.6-175.7c-6.1-26.5-11.5-41.2-17.2-61.9c-5.7-20.6-11.5-43.5-14.9-66.5
			c-3.4-22.9-1.1-41.2,41.2-19.5c20.1,10.3,51.9,30,77.9,45.8c46,27.9,73.3,44.7,97.4,56.1c24.1,11.5,72.2,30.2,98.5,30.9
			c38.1,1.1,69.3,4,110-36.7c40.7-40.7,65.3-97.3,83.6-152.7c9.8-29.7,22.9-60.4,45.8-82.3c15.9-15.1,33-27.3,52.7-36.6
			c34.8-16.4,70.5-37.2,97.4-64.2C2198.3,68.2,2200,0,2200,0z"/>
	</defs>
	<use xlink:href="#SVGID_1_"  style="overflow:visible;fill:#263681;"/>
	<clipPath id="SVGID_2_">
		<use xlink:href="#SVGID_1_"  style="overflow:visible;"/>
	</clipPath>
	<radialGradient id="SVGID_3_" cx="1578.3854" cy="548.2812" r="1863.6979" gradientUnits="userSpaceOnUse">
		<stop  offset="0" style="stop-color:#FFFFFF"/>
		<stop  offset="1" style="stop-color:#FFFFFF;stop-opacity:0"/>
	</radialGradient>
	<circle class="st0" cx="1578.4" cy="548.3" r="1863.7"/>
</g>
</svg>
