<?xml version="1.0" encoding="utf-8"?>
<!-- Generator: Adobe Illustrator 21.0.0, SVG Export Plug-In . SVG Version: 6.00 Build 0)  -->
<svg version="1.1" id="Слой_1" xmlns="http://www.w3.org/2000/svg" xmlns:xlink="http://www.w3.org/1999/xlink" x="0px" y="0px"
	 width="2200px" height="2416.6px" viewBox="0 0 2200 2416.6" style="enable-background:new 0 0 2200 2416.6;" xml:space="preserve"
	>
<style type="text/css">
	.st0{opacity:0.5;clip-path:url(#SVGID_2_);fill:url(#SVGID_3_);}
</style>
<g>
	<defs>
		<path id="SVGID_1_" d="M1920,154c0-60.3-17.5-113.7-21.2-154C1969,0,2200,0,2200,0s0,456.5,0,557c0,324.1,0,1858.8,0,1858.8H0
			L0,1060c0,0,3.4,5.8,17.2,15.4s48.1,30,81.8,40.6c56.8,17.9,116.3,14.1,168-16c48.4-28.2,97.5-48.4,152.8-58.4
			c26.8-4.9,55.9-8.7,83.2-7.6c53.4,2.3,104.8,15.1,154,36c32.3,13.7,65.7,20.8,101,18c27.7-2.2,53.8-12.9,76-29
			c27.1-19.7,49.3-43.7,71-69c26.7-31.1,59-68,77-85s37-30,72-39s63-10,89-13s54-8,75-20s38.2-30.3,50.6-66.6S1285,678,1270,613
			c-5.3-23.2-10-36-15-54s-10-38-13-58s-1-36,36-17c17.5,9,45.3,26.2,68,40c40.1,24.4,64,39,85,49s63,26.4,86,27
			c33.2,0.9,60.5,3.5,96-32c35.5-35.5,57-84.9,73-133.3c8.6-25.9,20-52.7,40-71.8c13.8-13.2,28.8-23.8,46-31.9
			c30.3-14.3,61.5-32.5,85-56C1918.5,213.5,1918,189,1920,154z"/>
	</defs>
	<use xlink:href="#SVGID_1_"  style="overflow:visible;fill:#263681;"/>
	<clipPath id="SVGID_2_">
		<use xlink:href="#SVGID_1_"  style="overflow:visible;"/>
	</clipPath>
	<radialGradient id="SVGID_3_" cx="1377.5" cy="632.5139" r="1626.5" gradientUnits="userSpaceOnUse">
		<stop  offset="0" style="stop-color:#FFFFFF"/>
		<stop  offset="1" style="stop-color:#FFFFFF;stop-opacity:0"/>
	</radialGradient>
	<circle class="st0" cx="1377.5" cy="632.5" r="1626.5"/>
</g>
</svg>
