<?xml version="1.0" encoding="utf-8"?>
<!-- Generator: Adobe Illustrator 22.0.1, SVG Export Plug-In . SVG Version: 6.00 Build 0)  -->
<svg version="1.1" id="OBJECTS" xmlns="http://www.w3.org/2000/svg" xmlns:xlink="http://www.w3.org/1999/xlink" x="0px" y="0px"
	 viewBox="0 0 182 433.3" style="enable-background:new 0 0 182 433.3;" xml:space="preserve">
<style type="text/css">
	.st00{fill:url(#XMLID_2_);}
	.st1{fill:#F3F5FF;}
	.st2{fill:url(#XMLID_3_);}
	.st3{fill:url(#XMLID_4_);}
	.st4{fill:#8398FF;}
	.st5{fill:url(#XMLID_5_);}
	.st6{fill:url(#XMLID_6_);}
	.st7{fill:url(#XMLID_14_);}
	.st8{fill:url(#XMLID_22_);}
	.st9{fill:#AEBCFF;}
	.st10{fill:url(#XMLID_24_);}
	.st11{fill:url(#XMLID_26_);}
	.st12{fill:url(#XMLID_29_);}
	.st13{fill:url(#XMLID_32_);}
	.st14{fill:url(#XMLID_33_);}
	.st15{fill:url(#XMLID_34_);}
	.st16{fill:url(#XMLID_35_);}
	.st17{clip-path:url(#XMLID_36_);fill:url(#XMLID_37_);}
	.st18{fill:#E3E8FF;}
	.st19{fill:url(#XMLID_38_);}
	.st20{fill:#E9EDFF;}
	.st21{fill:url(#XMLID_39_);}
	.st22{fill:url(#XMLID_40_);}
	.st23{fill:url(#XMLID_41_);}
	.st24{fill:url(#XMLID_42_);}
	.st25{fill:url(#XMLID_43_);}
	.st26{fill:url(#XMLID_44_);}
	.st27{fill:url(#XMLID_45_);}
	.st28{fill:#4152A5;}
	.st29{fill:url(#XMLID_46_);}
	.st30{fill:url(#XMLID_47_);}
	.st31{opacity:0.42;fill:#2B3C7A;}
	.st32{fill:url(#XMLID_48_);}
	.st33{fill:#9DA7CC;}
</style>
<g id="XMLID_7_">
	<g id="XMLID_8_">
		<g id="XMLID_120_">
			
				<linearGradient id="XMLID_2_" gradientUnits="userSpaceOnUse" x1="-244.185" y1="-179.5675" x2="-213.9276" y2="-179.5675" gradientTransform="matrix(1 -3.671643e-03 3.671643e-03 1 257.5747 422.3349)">
				<stop  offset="5.376340e-03" style="stop-color:#465DAF"/>
				<stop  offset="8.002758e-02" style="stop-color:#4359A8"/>
				<stop  offset="0.4614" style="stop-color:#364688"/>
				<stop  offset="0.7816" style="stop-color:#2E3A74"/>
				<stop  offset="1" style="stop-color:#2B366D"/>
			</linearGradient>
			<path id="XMLID_140_" class="st00" d="M42.7,165.1L43.5,384l-30.3,0.1l-0.8-218.9c-0.1-15.7,2.3-31.4,6.9-46.4l3.9-12.6
				c0.1-0.3,0.2-0.6,0.4-0.9c1.8-3.2,6.8-2.9,8,0.9l4,12.6C40.2,133.8,42.6,149.4,42.7,165.1z"/>
			<path id="XMLID_138_" class="st1" d="M35.1,165.2l0.8,218.9l-22.7,0.1l-0.8-218.9c-0.1-15.7,2.3-31.4,6.9-46.4l3.9-12.6
				c0.1-0.3,0.2-0.6,0.4-0.9c0.2,0.3,0.3,0.6,0.4,0.9l4,12.6C32.7,133.8,35.1,149.4,35.1,165.2z"/>
			
				<linearGradient id="XMLID_3_" gradientUnits="userSpaceOnUse" x1="-242.6047" y1="-178.6335" x2="-219.9112" y2="-178.6335" gradientTransform="matrix(1 -3.671643e-03 3.671643e-03 1 257.5747 422.3349)">
				<stop  offset="5.376340e-03" style="stop-color:#465DAF"/>
				<stop  offset="8.002758e-02" style="stop-color:#4359A8"/>
				<stop  offset="0.4614" style="stop-color:#364688"/>
				<stop  offset="0.7816" style="stop-color:#2E3A74"/>
				<stop  offset="1" style="stop-color:#2B366D"/>
			</linearGradient>
			<path id="XMLID_130_" class="st2" d="M36.7,165l0.8,218.9L14.8,384L14,165.1c-0.1-15.7,2.3-31.4,6.9-46.4l3.9-12.6
				c0.1-0.3,0.2-0.6,0.4-0.9c0.2,0.3,0.3,0.6,0.4,0.9l4,12.6C34.2,133.7,36.7,149.3,36.7,165z"/>
			
				<radialGradient id="XMLID_4_" cx="-258.9646" cy="-67.1475" r="61.5603" gradientTransform="matrix(1 -3.671643e-03 3.671643e-03 1 257.5747 422.3349)" gradientUnits="userSpaceOnUse">
				<stop  offset="5.376340e-03" style="stop-color:#465DAF"/>
				<stop  offset="1" style="stop-color:#2B366D"/>
			</radialGradient>
			<polygon id="XMLID_129_" class="st3" points="53,399.9 3.8,400.1 13.2,367.5 43.4,367.4 			"/>
			<polygon id="XMLID_128_" class="st4" points="41,399.9 3.8,400.1 13.2,367.5 31.5,367.4 			"/>
			
				<radialGradient id="XMLID_5_" cx="-257.9308" cy="-67.4486" r="54.82" gradientTransform="matrix(1 -3.671643e-03 3.671643e-03 1 257.5747 422.3349)" gradientUnits="userSpaceOnUse">
				<stop  offset="5.376340e-03" style="stop-color:#465DAF"/>
				<stop  offset="1" style="stop-color:#2B366D"/>
			</radialGradient>
			<polygon id="XMLID_123_" class="st5" points="43.5,399.7 3.8,400.1 15.6,367.2 33.9,367.2 			"/>
			
				<radialGradient id="XMLID_6_" cx="-250.4157" cy="-23.9076" r="33.4645" gradientTransform="matrix(1 -3.671643e-03 3.671643e-03 1 257.5747 422.3349)" gradientUnits="userSpaceOnUse">
				<stop  offset="5.376340e-03" style="stop-color:#465DAF"/>
				<stop  offset="1" style="stop-color:#2B366D"/>
			</radialGradient>
			<polygon id="XMLID_122_" class="st6" points="45,401.9 10.8,402.1 10.8,400 45,399.9 			"/>
			
				<radialGradient id="XMLID_14_" cx="-485.5958" cy="-253.0545" r="33.4655" gradientTransform="matrix(0.8834 -3.226767e-03 1.603454e-03 0.4483 439.2887 478.1271)" gradientUnits="userSpaceOnUse">
				<stop  offset="0" style="stop-color:#2B366D"/>
				<stop  offset="0.9946" style="stop-color:#465DAF"/>
			</radialGradient>
			<polygon id="XMLID_121_" class="st7" points="43.4,367.4 13.2,367.5 13.2,366.6 43.4,366.4 			"/>
		</g>
		<g id="XMLID_97_">
			
				<linearGradient id="XMLID_22_" gradientUnits="userSpaceOnUse" x1="-133.8591" y1="-177.5159" x2="-103.602" y2="-177.5159" gradientTransform="matrix(1 -3.671643e-03 3.671643e-03 1 257.5747 422.3349)">
				<stop  offset="5.376340e-03" style="stop-color:#465DAF"/>
				<stop  offset="8.002758e-02" style="stop-color:#4359A8"/>
				<stop  offset="0.4614" style="stop-color:#364688"/>
				<stop  offset="0.7816" style="stop-color:#2E3A74"/>
				<stop  offset="1" style="stop-color:#2B366D"/>
			</linearGradient>
			<path id="XMLID_119_" class="st8" d="M153,166.8l0.8,218.9l-30.3,0.1l-0.8-218.9c-0.1-15.7,2.3-31.4,6.9-46.4l3.9-12.6
				c0.1-0.3,0.2-0.6,0.4-0.9c1.8-3.2,6.8-2.9,8,0.9l4,12.6C150.5,135.4,153,151.1,153,166.8z"/>
			<path id="XMLID_118_" class="st9" d="M145.5,166.8l0.8,218.9l-22.7,0.1l-0.8-218.9c-0.1-15.7,2.3-31.4,6.9-46.4l3.9-12.6
				c0.1-0.3,0.2-0.6,0.4-0.9c0.2,0.3,0.3,0.6,0.4,0.9l4,12.6C143,135.5,145.4,151.1,145.5,166.8z"/>
			
				<linearGradient id="XMLID_24_" gradientUnits="userSpaceOnUse" x1="-133.0371" y1="-176.2984" x2="-110.3435" y2="-176.2984" gradientTransform="matrix(1 -3.671643e-03 3.671643e-03 1 257.5747 422.3349)">
				<stop  offset="5.376340e-03" style="stop-color:#465DAF"/>
				<stop  offset="8.002758e-02" style="stop-color:#4359A8"/>
				<stop  offset="0.4614" style="stop-color:#364688"/>
				<stop  offset="0.7816" style="stop-color:#2E3A74"/>
				<stop  offset="1" style="stop-color:#2B366D"/>
			</linearGradient>
			<path id="XMLID_103_" class="st10" d="M146.3,167l0.8,218.9l-22.7,0.1L123.6,167c-0.1-15.7,2.3-31.4,6.9-46.4l3.9-12.6
				c0.1-0.3,0.2-0.6,0.4-0.9c0.2,0.3,0.3,0.6,0.4,0.9l4,12.6C143.8,135.6,146.2,151.2,146.3,167z"/>
			
				<radialGradient id="XMLID_26_" cx="-148.6389" cy="-65.0956" r="61.5602" gradientTransform="matrix(1 -3.671643e-03 3.671643e-03 1 257.5747 422.3349)" gradientUnits="userSpaceOnUse">
				<stop  offset="5.376340e-03" style="stop-color:#465DAF"/>
				<stop  offset="1" style="stop-color:#2B366D"/>
			</radialGradient>
			<polygon id="XMLID_102_" class="st11" points="163.3,401.5 114.2,401.7 123.5,369.1 153.8,369 			"/>
			<polygon id="XMLID_101_" class="st4" points="151.4,401.6 114.2,401.7 123.5,369.1 141.8,369 			"/>
			
				<radialGradient id="XMLID_29_" cx="-145.4945" cy="-65.0382" r="52.9844" gradientTransform="matrix(1 -3.671643e-03 3.671643e-03 1 257.5747 422.3349)" gradientUnits="userSpaceOnUse">
				<stop  offset="5.376340e-03" style="stop-color:#465DAF"/>
				<stop  offset="1" style="stop-color:#2B366D"/>
			</radialGradient>
			<polygon id="XMLID_100_" class="st12" points="153.2,401.6 116,401.8 125.4,369.2 143.6,369.1 			"/>
			
				<radialGradient id="XMLID_32_" cx="-140.0899" cy="-21.8559" r="33.4644" gradientTransform="matrix(1 -3.671643e-03 3.671643e-03 1 257.5747 422.3349)" gradientUnits="userSpaceOnUse">
				<stop  offset="5.376340e-03" style="stop-color:#465DAF"/>
				<stop  offset="1" style="stop-color:#2B366D"/>
			</radialGradient>
			<polygon id="XMLID_99_" class="st13" points="155.4,403.6 121.1,403.7 121.1,401.7 155.4,401.6 			"/>
			
				<radialGradient id="XMLID_33_" cx="-360.7091" cy="-248.4825" r="33.4655" gradientTransform="matrix(0.8834 -3.226767e-03 1.603454e-03 0.4483 439.2887 478.1271)" gradientUnits="userSpaceOnUse">
				<stop  offset="0" style="stop-color:#2B366D"/>
				<stop  offset="0.9946" style="stop-color:#465DAF"/>
			</radialGradient>
			<polygon id="XMLID_98_" class="st14" points="153.8,369 123.5,369.1 123.5,368.2 153.8,368.1 			"/>
		</g>
		<g id="XMLID_95_">
			
				<linearGradient id="XMLID_34_" gradientUnits="userSpaceOnUse" x1="-219.7316" y1="-218.4797" x2="-129.488" y2="-218.4797" gradientTransform="matrix(1 -3.671643e-03 3.671643e-03 1 257.5747 422.3349)">
				<stop  offset="5.376340e-03" style="stop-color:#465DAF"/>
				<stop  offset="1" style="stop-color:#2B366D"/>
			</linearGradient>
			<path id="XMLID_96_" class="st15" d="M126.9,111.5l1.1,294l-90.2,0.3l-1.1-294c-0.1-31.8,9.1-63,26.4-89.7L72,8.5l0,0
				c4.4-6.8,14.4-6.9,18.9-0.1l9,13.6C117.4,48.6,126.8,79.7,126.9,111.5z"/>
			<path id="XMLID_105_" class="st4" d="M108,111.6l1.1,294l-71.3,0.3l-1.1-294c-0.1-31.8,9.1-63,26.4-89.7L72,8.5l9,13.6
				C98.5,48.6,107.9,79.8,108,111.6z"/>
			
				<linearGradient id="XMLID_35_" gradientUnits="userSpaceOnUse" x1="-218.9923" y1="-216.1744" x2="-147.6755" y2="-216.1744" gradientTransform="matrix(1 -3.671643e-03 3.671643e-03 1 257.5747 422.3349)">
				<stop  offset="5.376340e-03" style="stop-color:#465DAF"/>
				<stop  offset="1" style="stop-color:#2B366D"/>
			</linearGradient>
			<path id="XMLID_104_" class="st16" d="M108.8,111.3l1.1,294l-71.3,0.3l-1.1-294c-0.1-31.8,9.1-63,26.4-89.7l8.9-13.6l9,13.6
				C99.2,48.4,108.6,79.5,108.8,111.3z"/>
		</g>
		<g id="XMLID_92_">
			<defs>
				<path id="XMLID_93_" d="M99.9,22l-9-13.6C86.4,1.6,76.4,1.7,72,8.5l0,0l-8.9,13.6C45.8,48.8,36.6,80,36.7,111.9l0,11.2
					c-0.4-1.4-0.8-2.8-1.2-4.2l-4-12.6c-1.2-3.8-6.2-4.1-8-0.9c-0.2,0.3-0.3,0.6-0.4,0.9l-3.9,12.6c-4.6,15-6.9,30.7-6.9,46.4
					l0.7,202.2l-9.3,32.6L23,400l-12.2,0l0,2l27-0.1l0,3.8l90.2-0.3l0-1.8l27.4-0.1l0-2l-2.2,0l0,0l10.1,0l-9.6-32.5L153,166.8
					c-0.1-15.7-2.5-31.3-7.2-46.3l-4-12.6c-1.2-3.8-6.2-4.1-8-0.9c-0.2,0.3-0.3,0.6-0.4,0.9l-3.9,12.6c-1,3.2-1.8,6.5-2.6,9.8
					l-0.1-18.7C126.8,79.7,117.4,48.6,99.9,22z"/>
			</defs>
			<clipPath id="XMLID_36_">
				<use xlink:href="#XMLID_93_"  style="overflow:visible;"/>
			</clipPath>
			
				<linearGradient id="XMLID_37_" gradientUnits="userSpaceOnUse" x1="29.1538" y1="88.284" x2="80.1954" y2="200.3536" gradientTransform="matrix(0.8126 -0.5829 0.5829 0.8126 -51 165.0067)">
				<stop  offset="5.376340e-03" style="stop-color:#54679E"/>
				<stop  offset="1" style="stop-color:#2C3970"/>
			</linearGradient>
			<path id="XMLID_94_" class="st17" d="M99,82.2c-0.4,0-0.8,0-1.3,0.1c-0.1,0-0.3,0-0.4,0.1c-0.3,0-0.6,0.1-0.9,0.2
				c-0.2,0-0.3,0.1-0.4,0.1c-0.3,0.1-0.5,0.2-0.8,0.2C95.1,82.9,95,83,94.8,83c-0.2,0.1-0.5,0.2-0.7,0.3c-0.2,0.1-0.3,0.2-0.4,0.3
				c-0.2,0.1-0.4,0.3-0.7,0.4c-0.1,0.1-0.3,0.2-0.4,0.3c-0.2,0.2-0.4,0.3-0.6,0.5c-0.1,0.1-0.3,0.3-0.4,0.4
				c-0.2,0.2-0.3,0.4-0.5,0.6c-0.1,0.2-0.3,0.3-0.4,0.5c0,0-0.1,0.1-0.1,0.1c-0.2,0.3-0.4,0.6-0.7,1C87,92.1,84.4,97,82,102
				c-10.9,23.1-16.6,48.5-16.5,74.2l0.3,94.2l-54,63.4l-2.5,56.4l1.3-0.1l-0.2,4l45.4-4.7l2.2-0.2L53.4,407c-0.8,3,1.5,6,4.6,6
				l3.6,0l0,3.9l27.2-0.1l0-3.9l8.4,0l0.4,16.4c0,1.5,1.2,2.7,2.7,2.6c0.2,0,0.3-0.1,0.5-0.1c0.2,0,0.3,0.1,0.5,0.1
				c1.5,0,2.7-1.2,2.7-2.7l0.3-16.4l6.8,0l0,3.9l27.2-0.1l0-3.9l4.4,0c3.1,0,5.4-3,4.6-6l-4.9-17.7l1.8,0.2l45.9,4.4l-0.2-4l0.2,0
				l-2.9-56.4l-53.5-61.9l-0.3-95.2c-0.1-15.6-2.2-31.1-6.4-46c-2.7-9.7-6.3-19.2-10.7-28.3c-2.4-4.9-5-9.7-7.8-14.3
				C106.1,83.9,102.6,82.2,99,82.2z"/>
		</g>
		<g id="XMLID_9_">
			<g id="XMLID_30_">
				<polygon id="XMLID_91_" class="st18" points="82.5,382.3 0,394.8 1.4,334.5 77.9,244.5 				"/>
				
					<radialGradient id="XMLID_38_" cx="-783.0909" cy="-228.8045" r="203.4077" gradientTransform="matrix(0.766 -2.838440e-03 3.671643e-03 1 591.9559 420.9226)" gradientUnits="userSpaceOnUse">
					<stop  offset="0" style="stop-color:#2C3970"/>
					<stop  offset="0.9946" style="stop-color:#54679E"/>
				</radialGradient>
				<polygon id="XMLID_89_" class="st19" points="84.7,382.8 1,391.4 2.5,338.4 80.1,245.1 				"/>
				<polygon id="XMLID_31_" class="st20" points="95.8,382.1 179.5,394.1 176.5,333.7 99.4,244.4 				"/>
			</g>
			<g id="XMLID_21_">
				
					<radialGradient id="XMLID_39_" cx="-266.534" cy="-225.6094" r="191.5536" gradientTransform="matrix(1 -3.671643e-03 3.671643e-03 1 257.5747 422.3349)" gradientUnits="userSpaceOnUse">
					<stop  offset="5.376340e-03" style="stop-color:#54679E"/>
					<stop  offset="1" style="stop-color:#2C3970"/>
				</radialGradient>
				<polygon id="XMLID_28_" class="st21" points="83.7,386.2 45.4,390.1 0,394.8 2.5,338.4 42.1,291.9 79.1,248.4 				"/>
				
					<radialGradient id="XMLID_40_" cx="-262.3865" cy="-167.1854" r="129.7227" gradientTransform="matrix(1 -3.671643e-03 3.671643e-03 1 257.5747 422.3349)" gradientUnits="userSpaceOnUse">
					<stop  offset="5.376340e-03" style="stop-color:#54679E"/>
					<stop  offset="1" style="stop-color:#2C3970"/>
				</radialGradient>
				<polygon id="XMLID_27_" class="st22" points="45.4,390.1 0,394.8 2.5,338.4 42.1,291.9 				"/>
				
					<radialGradient id="XMLID_41_" cx="-170.7252" cy="-225.6098" r="191.5556" gradientTransform="matrix(1 -3.671643e-03 3.671643e-03 1 257.5747 422.3349)" gradientUnits="userSpaceOnUse">
					<stop  offset="5.376340e-03" style="stop-color:#54679E"/>
					<stop  offset="1" style="stop-color:#2C3970"/>
				</radialGradient>
				<polygon id="XMLID_25_" class="st23" points="179.5,394.1 133.6,389.7 95.8,386.1 99.4,248.4 136.2,291 176.6,337.7 				"/>
				
					<radialGradient id="XMLID_42_" cx="-128.785" cy="-167.8578" r="130.4304" gradientTransform="matrix(1 -3.671643e-03 3.671643e-03 1 257.5747 422.3349)" gradientUnits="userSpaceOnUse">
					<stop  offset="5.376340e-03" style="stop-color:#54679E"/>
					<stop  offset="1" style="stop-color:#2C3970"/>
				</radialGradient>
				<polygon id="XMLID_23_" class="st24" points="179.5,394.1 133.6,389.7 136.2,291 176.6,337.7 				"/>
			</g>
			
				<linearGradient id="XMLID_43_" gradientUnits="userSpaceOnUse" x1="-12.1885" y1="-195.9959" x2="-136.0747" y2="-189.2671" gradientTransform="matrix(1 -3.671643e-03 3.671643e-03 1 257.5747 422.3349)">
				<stop  offset="5.376340e-03" style="stop-color:#54679E"/>
				<stop  offset="1" style="stop-color:#2C3970"/>
			</linearGradient>
			<path id="XMLID_20_" class="st25" d="M122.7,176.6l0.8,209.5l-67.7,0.2L55,176.9c-0.1-25.7,5.6-51.1,16.5-74.2
				c2.4-5,5-9.9,7.8-14.6c0.2-0.3,0.4-0.7,0.7-1c2.1-2.8,5.3-4.2,8.5-4.2c3.5,0,7.1,1.7,9.2,5.2c2.8,4.7,5.4,9.4,7.8,14.3
				c4.4,9.1,8,18.6,10.7,28.3C120.5,145.5,122.7,161,122.7,176.6z"/>
			<path id="XMLID_19_" class="st20" d="M105.7,176.7l0.8,209.5l-50.6,0.2L55,176.9c-0.1-25.7,5.6-51.1,16.5-74.2
				c2.4-5,5-9.9,7.8-14.6c0.2-0.3,0.4-0.7,0.7-1c0.2,0.3,0.5,0.6,0.7,1c2.8,4.7,5.4,9.4,7.8,14.3c4.4,9.1,8,18.6,10.7,28.3
				C103.4,145.5,105.6,161,105.7,176.7z"/>
			
				<linearGradient id="XMLID_44_" gradientUnits="userSpaceOnUse" x1="-199.8452" y1="-186.5139" x2="-149.2014" y2="-186.5139" gradientTransform="matrix(1 -3.671643e-03 3.671643e-03 1 257.5747 422.3349)">
				<stop  offset="5.376340e-03" style="stop-color:#54679E"/>
				<stop  offset="1" style="stop-color:#2C3970"/>
			</linearGradient>
			<path id="XMLID_18_" class="st26" d="M107.5,176.5l0.8,209.5l-50.6,0.2l-0.8-209.5c-0.1-25.7,5.6-51.1,16.5-74.2
				c2.4-5,5-9.9,7.8-14.6c0.2-0.3,0.4-0.7,0.7-1c0.2,0.3,0.5,0.6,0.7,1c2.8,4.7,5.4,9.4,7.8,14.3c4.4,9.1,8,18.6,10.7,28.3
				C105.2,145.4,107.4,160.9,107.5,176.5z"/>
			<path id="XMLID_17_" class="st20" d="M132.1,413.3l-84.7,0.3c-3.1,0-5.4-3-4.6-6l16-60.1c2.2-8.3,9.8-14.2,18.4-14.2l24.5-0.1
				c8.6,0,16.2,5.7,18.5,14.1l16.4,60C137.5,410.3,135.3,413.3,132.1,413.3z"/>
			
				<linearGradient id="XMLID_45_" gradientUnits="userSpaceOnUse" x1="-67.5984" y1="261.3735" x2="31.5217" y2="261.3735" gradientTransform="matrix(0.8126 -0.5829 0.5829 0.8126 -51 165.0067)">
				<stop  offset="5.376340e-03" style="stop-color:#54679E"/>
				<stop  offset="1" style="stop-color:#2C3970"/>
			</linearGradient>
			<path id="XMLID_418_" class="st27" d="M119.9,351.1L136,410c0.8,3-1.4,5.9-4.5,5.9l-38.1,0.1l-6.1,0l-39,0.1
				c-3.1,0-5.3-2.9-4.5-5.9l15.7-59c2.2-8.2,9.6-13.9,18.1-13.9l7.8,0l9.5,0l6.8,0C110.2,337.3,117.6,342.9,119.9,351.1z"/>
			
				<rect id="XMLID_16_" x="50.1" y="416.1" transform="matrix(1 -3.656965e-03 3.656965e-03 1 -1.5282 0.2358)" class="st28" width="27.2" height="3.9"/>
			
				<rect id="XMLID_15_" x="99.6" y="415.9" transform="matrix(1 -3.663393e-03 3.663393e-03 1 -1.5299 0.4174)" class="st28" width="27.2" height="3.9"/>
			<g id="XMLID_12_">
				
					<linearGradient id="XMLID_46_" gradientUnits="userSpaceOnUse" x1="-186.6461" y1="-283.212" x2="-150.5072" y2="-283.212" gradientTransform="matrix(1 -3.671643e-03 3.671643e-03 1 257.5747 422.3349)">
					<stop  offset="5.376340e-03" style="stop-color:#54679E"/>
					<stop  offset="1" style="stop-color:#2C3970"/>
				</linearGradient>
				<path id="XMLID_13_" class="st29" d="M103.5,145.4c-0.6,0-1.3-0.2-1.8-0.7c-7.6-7.5-19.9-7.5-27.5,0.1c-1,1-2.6,1-3.6,0
					c-1-1-1-2.6,0-3.6c9.5-9.6,25.1-9.6,34.7-0.1c1,1,1,2.6,0,3.6C104.8,145.2,104.2,145.4,103.5,145.4z"/>
			</g>
			
				<linearGradient id="XMLID_47_" gradientUnits="userSpaceOnUse" x1="-185.1347" y1="-328.6495" x2="-143.4287" y2="-331.4695" gradientTransform="matrix(1 -3.671643e-03 3.671643e-03 1 257.5747 422.3349)">
				<stop  offset="5.376340e-03" style="stop-color:#54679E"/>
				<stop  offset="1" style="stop-color:#2C3970"/>
			</linearGradient>
			<path id="XMLID_11_" class="st30" d="M105.5,102.3c-9.6-6.6-20.7-6.8-34,0.4c2.4-5,5-9.9,7.8-14.6c2.1-3.5,5.6-5.2,9.2-5.2
				c3.5,0,7.1,1.7,9.2,5.2C100.6,92.6,103.2,97.4,105.5,102.3z"/>
			<path id="XMLID_416_" class="st31" d="M95,334.1l-0.1,3.3l-1.4,78.7l-6.1,0l-2-78.7l-0.1-3.3C88.8,331.6,91.9,332,95,334.1z"/>
			
				<linearGradient id="XMLID_48_" gradientUnits="userSpaceOnUse" x1="-167.7755" y1="-113.146" x2="-172.2973" y2="16.1801" gradientTransform="matrix(1 -3.671643e-03 3.671643e-03 1 257.5747 422.3349)">
				<stop  offset="5.376340e-03" style="stop-color:#54679E"/>
				<stop  offset="1" style="stop-color:#2C3970"/>
			</linearGradient>
			<path id="XMLID_10_" class="st32" d="M83.2,333.8c3.4-2.5,6.6-2.1,9.6,0l-1.7,96.9c0,1.5-1.2,2.7-2.7,2.7l0,0
				c-1.5,0-2.7-1.2-2.7-2.6L83.2,333.8z"/>
		</g>
	</g>
</g>
<g>
	<path class="st33" d="M93.1,182.4h5.6c1.5,0,2.3,0.8,2.3,2.3c0,1.5-0.7,2.3-2.3,2.2h-5.4c-0.9,0-1.4,0.4-1.4,1.2v5.6
		c0,1.5-0.8,2.3-2.3,2.3c-1.5,0-2.3-0.8-2.2-2.4l0-5.4c0-0.8-0.4-1.3-1.3-1.3h-5.5c-1.5,0.1-2.3-0.7-2.3-2.2c0-1.5,0.8-2.3,2.3-2.3
		H93.1z M93.1,205h5.6c1.5,0,2.3-0.8,2.3-2.3c0-1.5-0.7-2.3-2.3-2.2H80.5c-1.5-0.1-2.3,0.7-2.3,2.2c0,1.5,0.8,2.3,2.3,2.3H93.1z"/>
	<path class="st33" d="M94,221.2l-14.7-5.6c-0.6-0.2-1-0.7-1.1-1.4v-2.3c0.1-0.8,0.6-1.1,1.6-0.8l19.7,8.1c0.9,0.4,1.4,1.3,1.4,2.8
		c0,1.5-0.5,2.4-1.4,2.8l-19.9,8.1c-0.9,0.4-1.3,0.1-1.3-0.7l-0.1-2.3c0.1-0.7,0.4-1.1,1.1-1.4l14.7-5.7
		C95.6,222.2,95.6,221.7,94,221.2z"/>
	<path class="st33" d="M82.9,259.2c0,1.3-0.8,2-2.3,2s-2.3-0.7-2.3-2l0-9.3c0-3.4,1-6.1,3.1-8.2c2.1-2.1,4.8-3.1,8.2-3.1
		c3.4,0,6.1,1,8.2,3.1c2.1,2.1,3.1,4.8,3.2,8.2l0,9.4c0,1.3-0.7,2-2.2,2s-2.3-0.6-2.2-1.9l-0.1-0.7l0-8.7c0-2-0.7-3.6-2-4.9
		s-2.9-1.9-4.9-1.9c-2.9,0-4.9,1.2-6,3.5c-0.5,1-0.8,2.1-0.7,3.3L82.9,259.2z"/>
	<path class="st33" d="M94,277.3l-14.7-5.6c-0.6-0.2-1-0.7-1.1-1.4V268c0.1-0.8,0.6-1.1,1.6-0.8l19.7,8.1c0.9,0.4,1.4,1.3,1.4,2.8
		c0,1.5-0.5,2.4-1.4,2.8l-19.9,8.1c-0.9,0.4-1.3,0.1-1.3-0.7l-0.1-2.3c0.1-0.7,0.4-1.1,1.1-1.4l14.7-5.7
		C95.6,278.3,95.6,277.8,94,277.3z"/>
</g>
</svg>
