<?xml version="1.0" encoding="utf-8"?>
<!-- Generator: Adobe Illustrator 22.0.1, SVG Export Plug-In . SVG Version: 6.00 Build 0)  -->
<svg version="1.1" id="Слой_1" xmlns="http://www.w3.org/2000/svg" xmlns:xlink="http://www.w3.org/1999/xlink" x="0px" y="0px"
	 width="2964px" height="2964px" viewBox="0 0 2964 2964" style="enable-background:new 0 0 2964 2964;" xml:space="preserve">
<style type="text/css">
	.st0{fill:#263681;}
</style>
<g id="New_Layer">
	<g>
		<path class="st0" d="M1699.3,1554.7c-1,1.8-1.7,3.6-1.9,4.2c-0.2,1.2-0.3,1.3-0.5,2.8c-0.1,1.1-0.1,3.1-0.1,3.1
			c0.1,7.3,0,4.2,0.1,8.2s0.7,7,2,12.7s4.3,23,5.8,27.2c0.4,0.8,1,4.7,1.8,7s3.1,12.2,3.9,14.2c1.4,5.3,2.1,8.3,2.2,8.8
			c0.5,1.7,1.3,4.3,2.3,7.5c2.6,8.8,3.9,15.7,6.3,23.5c1.1,3.6,2.2,8.2,2.4,10.4c0.2,2.1,5,22.7,5,22.9c0.3,2.3,0.8,5.4,1.2,9.2
			c0.6,5.8,2.7,25.4,0.9,51.5c-1,14.4-6.1,46-6.6,47.5c-0.4,1.7-0.4,1.8-1.7,5.3c-0.5,1.1-3.5,12.5-6.4,19.2c-3.2,7.2-6.7,16-9,17.8
			s-17.3,19.1-18.2,19.6s-5.2,5.7-10.7,8.5c-1.9,0.9-5.4,2.9-7.7,4.4c-2.4,1.5-25.4,9.7-26.7,9.7c-4,0.9-13,2.9-19.3,3.7
			c-1.8,0.1-5.7,0.9-8.6,1.1c-2.8,0.2-12.8,2-14.7,2c-4.9,0-23.4,1.8-27,2.3s-9.4,1.1-13,1.4s-7.8,0.8-9.5,1.1
			c-1.6,0.2-24,3.6-26.4,4.2c-2.5,0.6-10.3,2.5-11.8,2.8c-1.6,0.4-12.2,3.8-17.5,5.8c-2.9,1.5-25.9,11.9-36.6,19.7
			c-8.5,6.2-23.3,20.5-42.2,40.8c-6.9,7.4-14.9,16-17.7,19c-2.9,3.1-22.1,25.4-25.3,29.1c-10.2,11.9-38.8,41.1-46,47
			c-3,2.5-7.1,5.9-9,7.7c-8,7.2-29.5,21.3-30.1,21.3s-4.3,1.5-8.3,3.4c-11.4,5.5-27.5,9.9-27.9,9.8c-0.5-0.1-10.5,2.1-12.2,2.2
			c-1.6,0.2-12.5,1.4-21.6,1c-19.3-0.9-18.7-0.4-24.5-1.1s-27.6-6.8-29.6-7.7c-2.1-0.9-22.4-7.4-30.6-10.9
			c-8.5-3.5-21.4-8.6-23.5-9.7c-2-1.1-19.1-6.9-24.2-8.4c-5.1-1.5-8.2-2.5-12.5-3.8s-35.5-7.4-39.2-8c-2.9-0.6-26.9-2.9-28.1-2.9
			c-43.5-2.7-25.6-1.8-28.7-1.7c-5.2-0.1-10.5-0.1-11.8-0.1c-1.2,0.1-20.1,0.5-31.7,2.5s4.6-1.3-23.4,4.3s-65.2,15.5-65.6,16.1
			c-0.4,0.6-12.8,6-15.3,6c-0.6,0-5.9,2.3-11.7,5c-1.4,0.7,27.4-13.7-11.7,5c-1.1,0.5-18.2,8.5-23.8,11.9
			c-1.9,1.1-51.2,24.3-52.7,24.6c-1.5,0.4-4.1,1.3-5.7,2.2c-1.6,0.9-28.4,6.2-34,6s-25.2,0.9-34.6,0c-3-0.3-4-0.2-11.3-1
			s-22.5-4.4-31.2-7.7s-29.6-10.5-34.8-13.1c-5.2-2.5-20.3-11.3-21.3-11.9c-1-0.5-3.2-1.4-6.1-3c-2.9-1.6-27-17.9-30.7-20.8
			c-0.5-0.5-2.3-1.7-4-2.7c-1.6-1.1-27.2-22.9-28-23.2s-15.9-14.9-19-17.9c-3-3-7.2-12.5-38.8-31.3
			c-31.6-18.8-100.6-33.2-101.7-33.2s-37.4,1.7-39.2,1.8c-2.3,0.1-7.5-0.1-12-0.4c-5.1-0.2-45.3-1.1-48.2,0.1
			c-4.1,1.7-16.7,0.5-17.6,0.5c-1.3,0-34.5-2.6-39.1-3.4c-4.6-0.9-10-1.7-11.9-1.9c-1.9-0.2-39.2-11.2-39.5-11.7
			c-0.8-1.3-19-10.1-19.7-10.8c-0.6-0.6-15.2-9.5-19.6-14.9S59,1920.4,59,1919.5c0-0.7-16.3-29.1-17.2-31c-0.8-1.9-2.8-5.4-2.8-6.8
			c-0.1-1.2-0.7-3.3-1.5-4.7c-0.8-1.4-7.3-18.1-10.6-29c-0.6-1.9-1.6-4.9-2.4-6.5c-0.7-1.7-1.3-3.2-1.2-3.5c0.1-0.3-0.8-2.1-2.1-4.1
			c-1.2-2-2.2-4.6-2.2-5.8c0-1.1-0.4-2.1-1-2.1c-0.5,0-1-0.7-1-1.5c0-1.5-6.7-15.6-10.8-22.8c-1.2-2.1-2.2-4.8-2.2-6.1
			c0-1.5-0.7-2.6-2-2.9c-2-0.5-2,0-2,585.4V2964h2964V0h-245.1c-233.3,0-245.1,0.1-243.8,1.7c0.7,1,3.1,3.9,5.2,6.5
			c2.2,2.8,9.4,11.3,9,12.8c-0.1,0.4,8.7,9.4,8.7,9.9c0,1.4,7,6.7,7,7.3c0,0.7,1.2,2.1,2.8,3.2c1.5,1,4.1,3.6,5.7,5.7
			c1.7,2.1,5.9,5.1,7.4,6.6c5.2,5.4,11.6,10.9,14.9,12.8c3.2,1.9,5.7,5.1,7.7,6.9s5.4,4.4,7.6,5.7c2.1,1.3,7.7,6.3,9.3,7.9
			c1.6,1.7,5.6,3.4,5.6,3.8c0,1.2,25,26,25,27c0,0.9,4,4.8,4,5.6c0,0.7,2.6,4.5,2.3,5.3c-0.4,1,15.5,30.2,16.3,29.9
			c2.7,2.7,5.2,14.1,6.4,16.4c1.8,3.6,4,17.6,3.7,23.2c-0.2,4.6-0.1,9.4,0.3,10.8c0.3,1.4,0.2,4.5-0.3,7c-0.4,2.5-1,7.6-1.3,11.5
			c-0.2,3.8-0.6,8.1-0.8,9.5c-0.1,1.4-0.6,5.4-1,9s-1.6,8.2-2.7,10.2c-1.2,2.4-1.8,5.7-1.7,8.9c0,2.9-0.4,5.4-1.1,5.8
			c-1.4,0.9-4.3,10.6-4.4,14.8c0,1.8-0.6,3.4-1.3,3.7c-0.6,0.2-1.5,2.3-1.9,4.5s-1.3,4.5-2.1,5.2c-0.8,0.6-1.4,2.4-1.4,4
			s-0.4,3.7-0.9,4.7c-2.5,4.9-4.1,9.5-4.1,11.7c0,1.4-0.4,2.5-1,2.5c-0.5,0-1,1.3-1,2.9s-0.7,3.4-1.5,4.1s-1.5,2.5-1.5,3.9
			c0,1.5-0.7,3.6-1.5,4.7c-0.8,1-1.5,2.9-1.5,4c0,1.2-0.7,2.7-1.5,3.4s-1.5,2.6-1.5,4.2s-0.9,4.7-2.1,7c-1.3,2.5-4.9,11-4.9,14.2
			c0,1.3-0.7,3.2-1.6,4c-0.8,0.9-1.4,5.6-2.2,6.1c-0.7,0.6-1.6,3.1-1.9,5.5c-0.3,2.5-11.5,34.7-11.8,36.8c-0.3,2-1,5.7-1.5,8.2
			c-1.6,6.8,2.1,58.7,1.9,60.6c-0.4,5,22.1,63.8,22.1,65.4c0,1.5,5.7,14.3,6.6,16.2c1,1.8,11.6,26.7,12.3,29
			c0.7,2.4,1.7,5.3,2.1,6.4c0.5,1.2,4.2,11.3,4.4,12.6c0.3,1.3,0.7,3.4,1,4.8c0.3,1.4,1.2,5.2,2.1,8.5c3.3,12.8,6.1,26.8,7.5,37.5
			c0.4,3.6,1.1,8.7,1.4,11.3c0.4,2.7,0.8,12.6,1.1,22c0.3,15.2,0,19.6-2.6,37.7c-2.6,17.8-5.9,31.8-9.1,38.2c-0.4,1-3.1,7.7-3.8,10
			c-0.8,2.4-1.7,4.5-2,4.8s-2,3.4-3.8,7c-3.8,7.5-8.5,14.7-10.2,17.5c-2.5,3.4-20.5,25.4-39.9,43.5c-16,14.8-34.1,33.4-42,42.9
			c-2,2.5-4.9,5.9-6.4,7.5c-1.6,1.7-3.9,4.7-5.2,6.6s-9.1,12.5-9.8,13.2c-0.8,0.7-3.5,4.5-6.2,8.3c-2.7,3.9-6.6,8.7-6.6,9.2
			c-1.3,2.4-1.3,2.5-3,4.6c-1.1,1.2-2.8,3.8-3.7,5.7s-2.2,4.1-2.8,4.8c-0.7,0.6-1.6,2.2-2,3.5c-0.3,1.2-1.3,2.9-2.1,3.8
			c-1.7,2-3.7,5.6-11.5,21.4c-3.3,6.6-8.2,18.5-8.6,18.5c-0.2,1.1-0.6,1.2-2.2,4.2c-0.7,2.4-1.7,4.7-2.2,5.2c-0.4,0.6-2,3-2,4
			c-1,3.8-4.8,14-4.8,15.4c-1,4.1-0.9,4.1-1.9,6.1c-1.1,2-2.4,6.1-3,9.1c-1.3,7.1-3.6,16.8-4.9,21.1c-0.6,1.9-1.6,6.8-2.2,10.9
			s-1.4,8.2-1.7,9c-0.3,1.5-0.1,0.2-0.4,2.1c0.1,0.5-0.7,7.7-1.8,15.8c-3,21.9-3.6,36.6-2.5,62.6c0.6,13.1,1.6,45.6,1.5,48.2
			c-0.2,12.4-1.7,16.4-1.7,20.1c-0.2,7.6-5.9,28-7,34c-2,5.6-17.8,37.9-22.9,44.2c-4.8,6-19.6,20.4-26,25.3
			c-13.6,10.4-42.8,26.9-43.6,27.1c-2.5,1.1-3.3,1.2-5.7,2.4c-2.3,1.3-25.8,11.4-30.7,13.8c-5,2.4-14.9,6-19.1,7.9
			c-4.1,1.9-14.4,6.2-18.1,7.5c-3.7,1.2-7.7,2.9-8.8,3.6c-1.1,0.8-13.4,5.3-16.3,6.7c-2.9,1.4-13.7,6.8-15.4,7.2
			c-3.1,0.6-13.3,5.5-25.2,11.9c-2.7,1.4-2.5,1.2-6.2,2.6c-6.1,3.5-16.5,9.6-21.4,14c-2.5,2.2-7.3,6.6-10.8,9.8
			c-3.5,3.1-8.6,8.6-11.4,12.2c-2.9,3.6-17.9,24.6-18.5,26c-0.7,1.4-2.7,5-4.4,8c-5.8,9.9-17.3,36-17.7,36.2s-2,3.2-3.5,6.8
			c-1.6,3.6-3.3,7.7-4,9.2c-0.7,1.6-4.7,8.2-4.7,8.7c0,0.9-4.9,11.6-6.9,15.1c-0.5,0.8-1.6,3.1-4.2,8c-1.3,1.9-1.7,2.7-3,4.9
			c-4.3,7.8-5,9-12.3,18.5c-5.1,6.6-3.3,6-21.9,21.4c-11.9,8.5-26.5,13.9-41,16.1c-21.7,2.1-30.9,1.4-34,1.1
			c-3.1-0.3-7.5-0.6-22.7-3.3c-3.6-0.8-10.2-2.1-11-2.3c-0.8-0.1-3.4-0.6-5.7-1c-2.4-0.3-13.5-2.4-29.5-7.5
			c-18.3-6.9-20.9-7.8-37.1-17.2c-16.2-9.4-22.1-13.5-45.1-28.8s-56.4-37.7-60.4-40c-4-2.5-5.7-2.9-8.2-3.9s-3.2-1.1-5.3-1.9
			c-2.4-0.6-6.1-1.5-9.8-2c-3.6-0.4-9.4-0.3-10.9,0.5c-1.5,0.8-1.6,1.2-2.3,2.1"/>
	</g>
</g>
<g id="MasterLayer_1">
</g>
</svg>
