<?xml version="1.0" encoding="utf-8"?>
<!-- Generator: Adobe Illustrator 22.0.1, SVG Export Plug-In . SVG Version: 6.00 Build 0)  -->
<svg version="1.1" xmlns="http://www.w3.org/2000/svg" xmlns:xlink="http://www.w3.org/1999/xlink" x="0px" y="0px" width="20px"
	 height="20px" viewBox="0 0 20 20" style="enable-background:new 0 0 20 20;" xml:space="preserve">
<style type="text/css">
	.st0{fill:#00B2FF;}
</style>
<g id="_xF579_">
</g>
<g id="_xF2FE_">
	<g>
		<path class="st0" d="M5.8,0h8.4c1.6,0,3,0.6,4.1,1.7c1.1,1.1,1.7,2.5,1.7,4.1v8.4c0,1.6-0.6,3-1.7,4.1c-1.1,1.1-2.5,1.7-4.1,1.7
			H5.8c-1.6,0-3-0.6-4.1-1.7C0.6,17.2,0,15.8,0,14.2V5.8c0-1.6,0.6-3,1.7-4.1C2.8,0.6,4.1,0,5.8,0z M5.6,2C4.5,2,3.7,2.4,3,3
			C2.4,3.7,2,4.5,2,5.6v8.8c0,1,0.4,1.9,1.1,2.6c0.7,0.7,1.5,1,2.6,1.1h8.8c1,0,1.9-0.4,2.6-1.1s1-1.5,1.1-2.6V5.6
			c0-1-0.4-1.9-1.1-2.6c-0.7-0.7-1.5-1-2.6-1.1H5.6z M10,5c1.4,0,2.6,0.5,3.5,1.5c1,1,1.4,2.1,1.5,3.5c0,1.4-0.5,2.6-1.5,3.5
			S11.4,15,10,15c-1.4,0-2.6-0.5-3.5-1.5c-1-1-1.4-2.1-1.5-3.5c0-1.4,0.5-2.6,1.5-3.5C7.4,5.5,8.6,5,10,5z M10,7
			C9.1,7,8.4,7.3,7.9,7.9S7,9.1,7,10s0.3,1.5,0.8,2.1s1.3,0.8,2.1,0.8s1.5-0.3,2.1-0.8s0.8-1.3,0.8-2.1s-0.3-1.5-0.8-2.1
			S10.8,7,10,7z M15.2,3.5c0.3,0,0.6,0.2,0.9,0.4c0.2,0.2,0.4,0.5,0.4,0.9c0,0.3-0.1,0.6-0.4,0.9C15.9,5.8,15.6,6,15.2,6
			c-0.3,0-0.6-0.1-0.9-0.4S14,5.1,14,4.7c0-0.3,0.1-0.6,0.4-0.9S14.9,3.5,15.2,3.5z"/>
	</g>
</g>
<g id="_xF501_">
</g>
</svg>
