<?xml version="1.0" encoding="utf-8"?>
<!-- Generator: Adobe Illustrator 22.0.1, SVG Export Plug-In . SVG Version: 6.00 Build 0)  -->
<svg version="1.1" xmlns="http://www.w3.org/2000/svg" xmlns:xlink="http://www.w3.org/1999/xlink" x="0px" y="0px" width="18px"
	 height="15.1px" viewBox="0 0 18 15.1" style="enable-background:new 0 0 18 15.1;" xml:space="preserve">
<style type="text/css">
	.st0{fill:#00B2FF;}
</style>
<g id="_xF579_">
</g>
<g id="_xF2FE_">
</g>
<g id="_xF501_">
	<g>
		<path class="st0" d="M6.8,14.2L7.1,10L14.7,3c0.2-0.2,0.2-0.3,0-0.3c-0.1,0-0.3,0-0.6,0.1l-9.5,6L0.7,7.5C0.2,7.4,0,7.2,0,7
			c0-0.3,0.3-0.5,0.8-0.8l16-6.1c0.4-0.2,0.7-0.1,0.9,0.1c0.2,0.2,0.3,0.6,0.2,1.2l-2.7,12.8c-0.2,0.9-0.7,1.1-1.5,0.7l-4.1-3
			l-2,1.9c-0.1,0.1-0.2,0.2-0.3,0.3S7,14.2,6.8,14.2z"/>
	</g>
</g>
</svg>
