<?xml version="1.0" encoding="utf-8"?>
<!-- Generator: Adobe Illustrator 22.0.1, SVG Export Plug-In . SVG Version: 6.00 Build 0)  -->
<svg version="1.1" xmlns="http://www.w3.org/2000/svg" xmlns:xlink="http://www.w3.org/1999/xlink" x="0px" y="0px" width="19.3px"
	 height="11px" viewBox="0 0 19.3 11" style="enable-background:new 0 0 19.3 11;" xml:space="preserve">
<style type="text/css">
	.st0{fill:#00B2FF;}
</style>
<g id="_xF579_">
	<g>
		<path class="st0" d="M17.2,7.6c0.7,0.7,1.3,1.3,1.5,1.6c0.3,0.4,0.4,0.6,0.4,0.6c0.2,0.5,0.2,0.8-0.1,1c-0.3,0.1-0.5,0.2-0.6,0.2
			l-2.6,0c-0.5,0-0.9-0.2-1.3-0.4c-0.5-0.4-1-0.9-1.4-1.4c-0.5-0.5-0.9-0.8-1.2-0.7c-0.3,0.2-0.5,0.5-0.6,1c-0.1,0.5-0.1,0.8,0,0.8
			l0,0.1c0,0.1,0,0.2-0.1,0.3s-0.2,0.1-0.3,0.1l-1.4,0c-0.1,0.1-0.6,0-1.5-0.1c-1-0.2-2-0.8-3.2-1.9C3.4,7.3,2.3,5.7,1.4,4
			C0.6,2.2,0.1,1.3,0.1,1.1L0,1c0-0.1,0-0.2,0.1-0.3c0.1-0.1,0.2-0.1,0.3-0.2h0.2h2.8h0.2c0.1,0,0.2,0.1,0.3,0.1
			C3.9,0.7,4,0.8,4,0.9l0.4,0.8c0.2,0.4,0.4,0.9,0.8,1.5c0.6,1,1,1.6,1.3,1.9C6.7,5.4,7,5.5,7.2,5.3c0.3-0.3,0.4-0.8,0.4-1.5
			c0-0.8,0-1.2,0-1.3l0-0.5c0-0.3-0.1-0.6-0.2-0.8C7.2,1.1,7,1,6.9,0.9C6.7,0.8,6.6,0.8,6.5,0.8s-0.1-0.1,0-0.2
			c0.1-0.1,0.2-0.3,0.4-0.4c0.3-0.1,0.6-0.2,1-0.2c0.4,0,0.9,0,1.4,0c0.4,0,0.7,0,0.8,0c0.2,0,0.4,0.1,0.5,0.1
			c0.4,0.1,0.7,0.4,0.7,0.9s0,1.3,0,2.3c0,0.4,0,0.8,0,1.1c0,0.4,0.1,0.7,0.4,0.8c0.1,0.1,0.3,0,0.6-0.2c0.3-0.2,0.8-0.9,1.4-1.9
			c0.3-0.6,0.6-1.1,0.7-1.5l0.3-0.8l0-0.1c0.1-0.1,0.1-0.1,0.2-0.2c0.1-0.1,0.2-0.1,0.3-0.1h3c0,0,0.2,0,0.5,0s0.5,0.1,0.6,0.3
			c0.2,0.4-0.3,1.4-1.5,3c-1,1.2-1.5,2-1.6,2.4C16,6.5,16.4,7,17.2,7.6z"/>
	</g>
</g>
<g id="_xF2FE_">
</g>
<g id="_xF501_">
</g>
</svg>
